HIERARCHY
ROOT Hips
{
	OFFSET 0.000000 0.000000 0.000000
	CHANNELS 6 Xposition Yposition Zposition Zrotation Yrotation Xrotation 
	JOINT LHipJoint
	{
		OFFSET 0.000000 0.000000 0.000000
		CHANNELS 3 Zrotation Yrotation Xrotation
		JOINT LeftUpLeg
		{
			OFFSET 1.363060 -1.794630 0.839290
			CHANNELS 3 Zrotation Yrotation Xrotation
			JOINT LeftLeg
			{
				OFFSET 2.448110 -6.726130 0.000000
				CHANNELS 3 Zrotation Yrotation Xrotation
				JOINT LeftFoot
				{
					OFFSET 2.562200 -7.039590 0.000000
					CHANNELS 3 Zrotation Yrotation Xrotation
					JOINT LeftToeBase
					{
						OFFSET 0.157640 -0.433110 2.322550
						CHANNELS 3 Zrotation Yrotation Xrotation
						End Site
						{
							OFFSET 0.000000 0.000000 0.000000
						}
					}
				}
			}
		}
	}
	JOINT RHipJoint
	{
		OFFSET 0.000000 0.000000 0.000000
		CHANNELS 3 Zrotation Yrotation Xrotation
		JOINT RightUpLeg
		{
			OFFSET -1.305520 -1.794630 0.839290
			CHANNELS 3 Zrotation Yrotation Xrotation
			JOINT RightLeg
			{
				OFFSET -2.542530 -6.985550 0.000000
				CHANNELS 3 Zrotation Yrotation Xrotation
				JOINT RightFoot
				{
					OFFSET -2.568260 -7.056230 0.000000
					CHANNELS 3 Zrotation Yrotation Xrotation
					JOINT RightToeBase
					{
						OFFSET -0.164730 -0.452590 2.363150
						CHANNELS 3 Zrotation Yrotation Xrotation
						End Site
						{
							OFFSET 0.000000 0.000000 0.000000
						}
					}
				}
			}
		}
	}
	JOINT LowerBack
	{
		OFFSET 0.000000 0.000000 0.000000
		CHANNELS 3 Zrotation Yrotation Xrotation
		JOINT Spine
		{
			OFFSET 0.028270 2.035590 -0.193380
			CHANNELS 3 Zrotation Yrotation Xrotation
			JOINT Spine1
			{
				OFFSET 0.056720 2.048850 -0.042750
				CHANNELS 3 Zrotation Yrotation Xrotation
				JOINT Neck
				{
					OFFSET 0.000000 0.000000 0.000000
					CHANNELS 3 Zrotation Yrotation Xrotation
					JOINT Neck1
					{
						OFFSET -0.054170 1.746240 0.172020
						CHANNELS 3 Zrotation Yrotation Xrotation
						JOINT Head
						{
							OFFSET 0.104070 1.761360 -0.123970
							CHANNELS 3 Zrotation Yrotation Xrotation
							End Site
							{
								OFFSET 0.000000 0.000000 0.000000
							}
						}
					}
				}
				JOINT LeftShoulder
				{
					OFFSET 0.000000 0.000000 0.000000
					CHANNELS 3 Zrotation Yrotation Xrotation
					JOINT LeftArm
					{
						OFFSET 3.362410 1.200890 -0.311210
						CHANNELS 3 Zrotation Yrotation Xrotation
						JOINT LeftForeArm
						{
							OFFSET 4.983000 -0.000000 -0.000000
							CHANNELS 3 Zrotation Yrotation Xrotation
							JOINT LeftHand
							{
								OFFSET 3.483560 -0.000000 -0.000000
								CHANNELS 3 Zrotation Yrotation Xrotation
								JOINT LeftFingerBase
								{
									OFFSET 0.000000 0.000000 0.000000
									CHANNELS 3 Zrotation Yrotation Xrotation
									JOINT LeftHandIndex1
									{
										OFFSET 0.715260 -0.000000 -0.000000
										CHANNELS 3 Zrotation Yrotation Xrotation
										End Site
										{
											OFFSET 0.000000 0.000000 0.000000
										}
									}
								}
								JOINT LThumb
								{
									OFFSET 0.000000 0.000000 0.000000
									CHANNELS 3 Zrotation Yrotation Xrotation
									End Site
									{
										OFFSET 0.000000 0.000000 0.000000
									}
								}
							}
						}
					}
				}
				JOINT RightShoulder
				{
					OFFSET 0.000000 0.000000 0.000000
					CHANNELS 3 Zrotation Yrotation Xrotation
					JOINT RightArm
					{
						OFFSET -3.136600 1.374050 -0.404650
						CHANNELS 3 Zrotation Yrotation Xrotation
						JOINT RightForeArm
						{
							OFFSET -5.241900 -0.000000 -0.000000
							CHANNELS 3 Zrotation Yrotation Xrotation
							JOINT RightHand
							{
								OFFSET -3.444170 -0.000000 -0.000000
								CHANNELS 3 Zrotation Yrotation Xrotation
								JOINT RightFingerBase
								{
									OFFSET 0.000000 0.000000 0.000000
									CHANNELS 3 Zrotation Yrotation Xrotation
									JOINT RightHandIndex1
									{
										OFFSET -0.622530 -0.000000 -0.000000
										CHANNELS 3 Zrotation Yrotation Xrotation
										End Site
										{
											OFFSET 0.000000 0.000000 0.000000
										}
									}
								}
								JOINT RThumb
								{
									OFFSET 0.000000 0.000000 0.000000
									CHANNELS 3 Zrotation Yrotation Xrotation
									End Site
									{
										OFFSET 0.000000 0.000000 0.000000
									}
								}
							}
						}
					}
				}
			}
		}
	}
}
MOTION
Frames: 10
Frame Time: 0.008333
0.981490 18.174111 -0.143836 6.311287 -60.907948 3.388104 -3.939364 5.811813 6.961744 -15.915148 -0.073866 -10.656368 -0.663388 3.569180 14.364021 -5.416312 21.674422 -15.547600 0.092000 -1.956500 -5.385300 -1.975467 -6.386175 4.062852 5.267709 33.995975 -20.586110 -1.633994 -5.302726 20.238432 8.500939 -28.953131 -12.402367 -0.259100 -3.275000 9.045200 2.017954 -1.300629 -2.087842 5.218648 -2.921140 17.924034 0.786714 -0.858952 -8.208575 -7.025955 -1.304649 -16.100936 2.882213 -2.070446 36.640261 2.322100 -1.472900 10.739400 -6.998207 -1.414574 -0.841774 -73.052763 -15.786026 24.095815 9.351033 -14.192958 -1.309510 -1.485560 0.096754 30.214915 38.943545 15.429902 13.128700 -7.125000 0.000000 0.000000 12.646600 50.122300 1.619500 6.065247 0.925102 -0.388821 69.110228 -1.899055 37.269958 -138.974621 51.256380 -102.129161 -1.375430 0.849347 -58.601312 -37.396620 -3.364360 4.117000 7.125000 0.000000 0.000000 -9.064600 -36.631900 -1.884600 
0.915186 18.182629 -0.145772 6.411095 -61.300641 3.235915 -3.931423 5.833957 6.985079 -15.842789 -0.038271 -10.468399 -0.639915 3.633627 14.551237 -5.414271 21.740176 -15.796490 0.076300 -1.782200 -4.904200 -1.982344 -6.391708 4.050404 5.553482 34.005924 -20.363830 -1.642704 -5.303915 20.244650 8.492561 -28.869352 -11.965631 -0.229300 -3.081800 8.506700 2.047848 -1.263932 -2.164598 5.314362 -2.887252 17.969851 0.802937 -0.838331 -8.147827 -6.489590 -1.230821 -16.255317 2.421101 -1.918340 36.761348 2.141400 -1.426200 10.796300 -7.013166 -1.398755 -0.850626 -72.827197 -15.723060 24.550598 9.553173 -14.517024 -1.365455 -1.470872 0.067051 29.152781 38.799305 15.166194 12.855000 -7.125000 0.000000 0.000000 12.456400 49.766800 1.484300 6.028324 0.943281 -0.377710 69.163282 -1.881675 37.119661 -138.982674 51.266476 -102.100319 -1.373411 0.843144 -58.796859 -38.017753 -2.470874 3.525100 7.125000 0.000000 0.000000 -9.508000 -35.570300 -2.228300 
0.849269 18.191534 -0.148288 6.167889 -61.479856 3.425770 -3.906648 5.854720 6.997950 -15.592249 0.098145 -10.401051 -0.609230 3.701617 14.703565 -5.482122 21.872756 -15.554538 0.083200 -1.861100 -5.122000 -1.989406 -6.387267 4.054671 6.016410 33.826256 -20.209373 -1.649191 -5.326901 20.327208 8.395824 -28.582384 -11.771579 -0.225000 -3.053000 8.426300 2.224765 -1.314094 -2.290381 5.612016 -2.969597 17.971406 0.698395 -0.881107 -8.064685 -6.194658 -1.166904 -16.370356 2.185320 -1.810951 36.862138 2.047600 -1.385600 10.846100 -7.033981 -1.395569 -0.858052 -72.638013 -15.637760 25.558338 9.737923 -14.822704 -1.420869 -1.474247 0.029486 28.216185 38.903125 15.379046 13.073700 -7.125000 0.000000 0.000000 12.580500 50.065100 1.592900 5.986368 0.950232 -0.369760 69.226493 -1.862268 36.915297 -139.013846 51.261245 -102.088933 -1.373255 0.837681 -58.932364 -38.515371 -1.646146 2.943300 7.125000 0.000000 0.000000 -9.837300 -34.573300 -2.549200 
0.780642 18.199762 -0.149450 6.574418 -61.644292 3.031613 -3.901222 5.875964 7.000671 -15.671858 0.529983 -10.440463 -0.543513 3.793574 14.918056 -5.666270 22.183799 -14.506760 0.175400 -2.697700 -7.438200 -1.998565 -6.372601 4.059166 6.116456 33.525408 -20.069911 -1.646694 -5.343842 20.354217 8.274786 -28.213372 -11.512468 -0.219500 -3.015900 8.322900 2.313818 -1.313576 -2.484540 5.500753 -2.972389 18.009279 0.684936 -0.891650 -7.954576 -5.893981 -1.126304 -16.405380 2.098997 -1.801462 36.982586 1.983300 -1.373000 10.892400 -7.026171 -1.390930 -0.866164 -72.444399 -15.476380 26.784666 9.891279 -15.079213 -1.470610 -1.498562 0.001608 28.025770 39.437639 16.140850 13.932500 -7.125000 0.000000 0.000000 13.233200 51.144500 2.033300 5.997216 0.950784 -0.369505 69.395122 -1.939991 36.556738 -139.046479 51.228252 -102.124185 -1.382553 0.851018 -59.188448 -37.872808 -1.645941 2.877600 7.125000 0.000000 0.000000 -9.317900 -34.546800 -2.417600 
0.709402 18.209635 -0.151966 7.077281 -61.885450 2.590913 -3.890664 5.888528 6.986396 -15.800012 0.896089 -10.486751 -0.467039 3.901107 15.169766 -5.906152 22.668813 -13.321776 0.363700 -3.874200 -10.723100 -1.996171 -6.365420 4.055556 6.125059 33.381444 -19.931523 -1.641124 -5.350845 20.365116 8.151533 -27.849234 -11.386640 -0.223000 -3.039500 8.388600 2.040102 -1.348164 -2.629708 5.856042 -3.046977 17.873652 0.782286 -0.904116 -7.841327 -6.062755 -1.041893 -16.317884 2.191080 -1.695651 37.062093 2.051600 -1.327800 10.903800 -7.055049 -1.387961 -0.867038 -72.519375 -15.294982 26.955094 10.010810 -15.261974 -1.506776 -1.502819 0.000119 28.474913 39.588318 16.497829 14.289600 -7.125000 0.000000 0.000000 13.429400 51.629000 2.226000 5.963134 0.954308 -0.359550 69.212742 -2.055313 36.423492 -139.116368 51.123543 -102.245247 -1.385691 0.865480 -59.596607 -36.265076 -3.109448 3.762700 7.125000 0.000000 0.000000 -8.116500 -36.236800 -1.763100 
0.640775 18.223379 -0.152354 7.194856 -62.019530 2.465673 -3.871370 5.910472 6.983124 -15.724670 1.029990 -10.406293 -0.411131 3.990711 15.364769 -6.083609 23.060968 -12.524152 0.523900 -4.638500 -12.880300 -1.993058 -6.359600 4.048336 6.370843 33.241546 -19.717777 -1.642783 -5.362591 20.399101 8.096679 -27.677190 -11.234364 -0.209900 -2.949400 8.138000 2.034982 -1.465526 -2.714735 6.219317 -3.212981 17.722307 0.735470 -0.979761 -7.789447 -6.191473 -0.918619 -16.253748 2.278155 -1.545189 37.257697 2.117600 -1.259700 10.945400 -7.079245 -1.385383 -0.866141 -72.452109 -15.114173 27.188773 10.144904 -15.476061 -1.546886 -1.483148 -0.009129 28.194706 39.289408 16.247499 13.943300 -7.125000 0.000000 0.000000 13.061800 51.251800 2.041000 5.932077 0.949886 -0.350294 69.074018 -2.174542 36.464203 -139.027370 51.038985 -102.402389 -1.385505 0.875428 -59.754853 -32.368177 -7.782318 6.122500 7.125000 0.000000 0.000000 -4.878100 -41.397500 -0.434600 
0.570213 18.234801 -0.157000 7.374532 -62.189787 2.263473 -3.859736 5.933216 6.988794 -15.657001 1.333139 -10.400177 -0.358693 4.079348 15.574637 -6.151042 23.159869 -11.900643 0.598000 -4.950600 -13.767700 -1.997869 -6.357264 4.038776 6.615783 33.162233 -19.491131 -1.651682 -5.375681 20.438455 8.089747 -27.628690 -10.990623 -0.182900 -2.754500 7.596000 2.141031 -1.527090 -2.807997 6.210333 -3.291940 17.673352 0.704456 -1.027356 -7.761327 -5.929463 -0.842974 -16.278137 2.175890 -1.478340 37.468526 2.064200 -1.227900 11.007500 -7.079889 -1.371739 -0.870389 -72.225324 -14.922047 27.726155 10.346803 -15.796421 -1.606857 -1.451536 -0.034599 27.352048 38.763340 15.815154 13.353500 -7.125000 0.000000 0.000000 12.429700 50.604700 1.740000 5.935870 0.942123 -0.348922 69.257667 -2.311864 36.191559 -139.093538 51.135990 -102.236038 -1.402994 0.898416 -59.490017 -35.519263 -1.781108 2.732600 7.125000 0.000000 0.000000 -7.414100 -34.602200 -1.905700 
0.499747 18.243803 -0.164550 7.584937 -62.450006 2.032646 -3.844369 5.948197 6.993894 -15.567045 1.393875 -10.333321 -0.313522 4.181419 15.848738 -6.155280 23.157780 -11.780532 0.565800 -4.817700 -13.389400 -2.002366 -6.355664 4.027491 6.835944 33.152654 -19.261033 -1.656310 -5.380486 20.470264 8.048262 -27.491023 -10.845088 -0.167900 -2.639500 7.276500 2.125742 -1.518997 -2.885526 6.337736 -3.290663 17.627903 0.710094 -1.021234 -7.714613 -5.791211 -0.815788 -16.340723 2.157400 -1.481398 37.658790 2.039600 -1.225200 11.078100 -7.088433 -1.362630 -0.870628 -72.153453 -14.864997 27.821717 10.530875 -16.072052 -1.660770 -1.404513 -0.041648 26.726540 37.995067 14.953936 12.335900 -7.125000 0.000000 0.000000 11.520900 49.373000 1.257300 5.921169 0.937236 -0.344204 69.314394 -2.468346 35.923055 -139.159690 51.097739 -102.269520 -1.402830 0.896678 -59.670160 -35.491015 -1.670992 2.650100 7.125000 0.000000 0.000000 -7.386000 -34.464400 -1.923300 
0.428894 18.249707 -0.172874 7.915349 -62.663772 1.716643 -3.829601 5.962779 6.997241 -15.531926 1.489562 -10.278205 -0.269238 4.273178 16.097926 -6.139160 23.074440 -11.531751 0.510800 -4.581000 -12.717300 -2.005538 -6.351708 4.016537 6.962536 33.172577 -19.070342 -1.665904 -5.398650 20.547685 7.987306 -27.312799 -10.817853 -0.162300 -2.595200 7.153700 2.051557 -1.535066 -2.996363 6.487038 -3.323603 17.566753 0.736099 -1.029978 -7.641904 -5.756990 -0.736273 -16.341870 2.168533 -1.393732 37.778973 2.053600 -1.182900 11.114200 -7.097825 -1.352553 -0.872370 -72.093970 -14.752435 28.067314 10.685972 -16.306338 -1.708217 -1.368536 -0.051369 26.732096 37.238311 14.673404 11.797000 -7.125000 0.000000 0.000000 10.688800 48.881900 1.034100 5.901717 0.932292 -0.341598 69.266892 -2.671961 35.763416 -139.224580 51.059858 -102.295185 -1.392103 0.877270 -59.765714 -35.910481 -2.228593 3.084000 7.125000 0.000000 0.000000 -7.765400 -35.146600 -1.893700 
0.358137 18.257838 -0.178101 8.180353 -62.884552 1.363503 -3.811252 5.992219 7.014270 -15.475865 1.798233 -10.214357 -0.211102 4.378890 16.384772 -6.099538 22.887044 -11.079302 0.481100 -4.448000 -12.340500 -2.013028 -6.342093 4.013734 7.207365 32.984250 -18.803212 -1.673247 -5.420355 20.615413 7.898894 -27.032236 -10.574522 -0.151000 -2.504000 6.900700 2.162159 -1.547843 -3.048871 6.500690 -3.343444 17.615029 0.674585 -1.045011 -7.610603 -5.748137 -0.661308 -16.314885 2.308229 -1.348446 37.786715 2.099800 -1.140300 11.112800 -7.085209 -1.342351 -0.881824 -71.985402 -14.576017 28.568774 10.866316 -16.595332 -1.768606 -1.349964 -0.057996 26.926516 36.974181 14.668866 11.680900 -7.125000 0.000000 0.000000 10.396700 48.829900 0.991900 5.897266 0.916652 -0.349849 69.291094 -2.870335 35.662267 -139.265964 51.044554 -102.307530 -1.390569 0.873003 -59.788620 -36.098474 -2.078781 2.996600 7.125000 0.000000 0.000000 -7.909000 -34.972800 -1.963000 
